<svg xmlns="http://www.w3.org/2000/svg" viewBox="-0.0029277801513671875 0.0012717247009277344 216.71385192871094 171.0548858642578"><title>资源 81</title><g><g fill="#0051eb"><path d="M.57 73.31c0-14.72-.06-29.43.06-44.14 0-2.53-1.41-6.06 1.52-7.37 2.34-1 4.41 1.74 6.36 3.16q62.58 45.57 125.1 91.21c11.34 8.27 22.54 16.74 34.1 24.69 4.84 3.34 7.15 7.13 6.52 13-.36 3.36.08 6.79-.12 10.18-.13 2.34 1.22 5.59-1.48 6.77-2.49 1.08-4.45-1.66-6.38-3.07q-46.93-34.15-93.82-68.41c-1.78-1.29-3.64-4-5.67-3.08-2.63 1.2-1.19 4.48-1.21 6.81-.11 20.37 0 40.75-.09 61.12 0 2 .75 4.62-1.07 5.72-2.33 1.42-4.12-1-5.89-2.27-15.73-11-15.72-11-15.72-29.92 0-16.52-.39-33.06.17-49.57.26-7.65-1.73-13.15-8.59-16.71-3.36-1.74-6.36-6.8-9.52-5.35-3.51 1.58-1.44 7-1.47 10.62-.19 18.79-.08 37.58-.12 56.37 0 2 .68 4.54-1.19 5.7-2.38 1.47-4-1.16-5.95-2.11C3.86 130.59-1.37 121.37.3 107.23c1.33-11.16.27-22.6.27-33.92zM216.37 98c0 14.26.06 28.52-.05 42.78 0 2.84 1.43 6.89-1.18 8.24-3.06 1.59-5.57-2.12-8-3.89Q155.48 107.6 104 69.93C85.85 56.72 67.87 43.35 49.58 30.4c-5-3.51-7.51-7.34-6.88-13.48a97.66 97.66 0 0 0 .08-12.22c-.13-5.44 1.94-5.81 5.93-2.88C62.59 12 76.52 22.08 90.42 32.22q27.42 20 54.85 40c1.57 1.14 3.12 3.51 5.15 2.47s1-3.72 1-5.64c.07-20.83 0-41.66.09-62.48 0-1.93-.82-4.49 1.27-5.59s3.72 1 5.34 2.13c16.06 11 16.06 11 16.06 30.43 0 15.62.57 31.27-.22 46.85-.47 9.43 1.83 16.31 10.5 20.51 2.74 1.33 5 5.61 7.92 4s1.21-5.82 1.23-8.85c.13-19.47.05-38.94.11-58.4 0-1.94-.72-4.45 1.39-5.58s3.75 1 5.37 2c15.91 10.51 15.9 10.53 15.9 29.87z"></path></g></g></svg>