<svg xmlns="http://www.w3.org/2000/svg" width="1200" height="1200" viewBox="0 0 60 60">
    <g fill="#366ef4" transform="scale(2)">
        <path d="M28.681 7.159c-0.694-0.947-1.662-2.053-2.724-3.116s-2.169-2.030-3.116-2.724c-1.612-1.182-2.393-1.319-2.841-1.319h-15.5c-1.378 0-2.5 1.121-2.5 2.5v27c0 1.378 1.122 2.5 2.5 2.5h23c1.378 0 2.5-1.122 2.5-2.5v-19.5c0-0.448-0.137-1.23-1.319-2.841zM24.543 5.457c0.959 0.959 1.712 1.825 2.268 2.543h-4.811v-4.811c0.718 0.556 1.584 1.309 2.543 2.268zM28 29.5c0 0.271-0.229 0.5-0.5 0.5h-23c-0.271 0-0.5-0.229-0.5-0.5v-27c0-0.271 0.229-0.5 0.5-0.5 0 0 15.499-0 15.5 0v7c0 0.552 0.448 1 1 1h7v19.5z"/>

        <path d="M23 26h-8c-0.552 0-1-0.448-1-1s0.448-1 1-1h14c0.552 0 1 0.448 1 1s-0.448 1-1 1z"/>

        <g transform="translate(1 8)">
            <path d="M13 17v-2c0-0.281-0.219-0.5-0.5-0.5h-3v-3c0-0.281-0.219-0.5-0.5-0.5h-2c-0.281 0-0.5 0.219-0.5 0.5v3h-3c-0.281 0-0.5 0.219-0.5 0.5v2c0 0.281 0.219 0.5 0.5 0.5h3v3c0 0.281 0.219 0.5 0.5 0.5h2c0.281 0 0.5-0.219 0.5-0.5v-3h3c0.281 0 0.5-0.219 0.5-0.5zM22 18c0-1.109-0.891-2-2-2s-2 0.891-2 2 0.891 2 2 2 2-0.891 2-2zM26 14c0-1.109-0.891-2-2-2s-2 0.891-2 2 0.891 2 2 2 2-0.891 2-2zM30 16c0 4.422-3.578 8-8 8-2.031 0-3.875-0.766-5.281-2h-3.437c-1.406 1.234-3.25 2-5.281 2-4.422 0-8-3.578-8-8s3.578-8 8-8h14c4.422 0 8 3.578 8 8z"/>
        </g>
    </g>
</svg>